<svg width="150" height="170" viewBox="0 0 150 170" fill="none" xmlns="http://www.w3.org/2000/svg">
  <!-- 웹 모양의 복잡한 균열 패턴 -->
  <path d="M75 0 L80 30 L70 60 L80 90 L70 120 L80 150 L75 170" stroke="#5D4037" stroke-width="5" stroke-linecap="round" stroke-linejoin="round" />
  <path d="M80 30 L95 40 L110 30 L125 40" stroke="#5D4037" stroke-width="3" stroke-linecap="round" stroke-linejoin="round" />
  <path d="M70 60 L50 70 L30 60 L10 70" stroke="#5D4037" stroke-width="3" stroke-linecap="round" stroke-linejoin="round" />
  <path d="M80 90 L100 100 L120 90 L140 100" stroke="#5D4037" stroke-width="3" stroke-linecap="round" stroke-linejoin="round" />
  <path d="M70 120 L50 130 L30 120 L10 130" stroke="#5D4037" stroke-width="3" stroke-linecap="round" stroke-linejoin="round" />
  
  <!-- 추가 균열 패턴 - 방사형 -->
  <path d="M80 30 L85 20 L90 30 L95 20" stroke="#5D4037" stroke-width="2" stroke-linecap="round" stroke-linejoin="round" />
  <path d="M70 60 L65 50 L60 60 L55 50" stroke="#5D4037" stroke-width="2" stroke-linecap="round" stroke-linejoin="round" />
  <path d="M80 90 L85 80 L90 90 L95 80" stroke="#5D4037" stroke-width="2" stroke-linecap="round" stroke-linejoin="round" />
  <path d="M70 120 L65 110 L60 120 L55 110" stroke="#5D4037" stroke-width="2" stroke-linecap="round" stroke-linejoin="round" />
  
  <!-- 거미줄 같은 작은 균열 -->
  <path d="M95 40 L100 35 L105 40 L110 35" stroke="#5D4037" stroke-width="1.5" stroke-linecap="round" stroke-linejoin="round" />
  <path d="M50 70 L45 65 L40 70 L35 65" stroke="#5D4037" stroke-width="1.5" stroke-linecap="round" stroke-linejoin="round" />
  <path d="M100 100 L105 95 L110 100 L115 95" stroke="#5D4037" stroke-width="1.5" stroke-linecap="round" stroke-linejoin="round" />
  <path d="M50 130 L45 125 L40 130 L35 125" stroke="#5D4037" stroke-width="1.5" stroke-linecap="round" stroke-linejoin="round" />
</svg> 