<svg width="160" height="200" viewBox="0 0 160 200" fill="none" xmlns="http://www.w3.org/2000/svg">
  <path d="M80 0 L70 30 L85 60 L70 90 L85 120 L75 150 L90 180 L80 200" stroke="#5D4037" stroke-width="5" stroke-linecap="round" stroke-linejoin="round" />
  <path d="M70 30 L50 40 L35 35 L20 45 L10 40" stroke="#5D4037" stroke-width="3" stroke-linecap="round" stroke-linejoin="round" />
  <path d="M85 60 L100 65 L115 55 L130 60" stroke="#5D4037" stroke-width="3" stroke-linecap="round" stroke-linejoin="round" />
  <path d="M70 90 L55 100 L45 95 L30 105" stroke="#5D4037" stroke-width="3" stroke-linecap="round" stroke-linejoin="round" />
  <path d="M85 120 L100 125 L115 115 L125 120" stroke="#5D4037" stroke-width="3" stroke-linecap="round" stroke-linejoin="round" />
  <path d="M75 150 L60 160 L45 155 L35 165" stroke="#5D4037" stroke-width="3" stroke-linecap="round" stroke-linejoin="round" />
  <path d="M90 180 L105 185 L120 175 L140 180" stroke="#5D4037" stroke-width="3" stroke-linecap="round" stroke-linejoin="round" />
  <path d="M85 60 L100 65 L115 55 L130 60" stroke="#5D4037" stroke-width="3" stroke-linecap="round" stroke-linejoin="round" />
</svg> 